# xmcd
#
# Track frame offsets:
#	150
#	12505
#	26708
#	40040
#	51360
#	66968
#	77968
#	89666
#	104280
#	115309
#	125961
#	135672
#	154134
#	159196
#	178075
#	217874
#	279165
#	291102
#	303282
#	311869
#	320241
#	329551
#
# Disc length: 4544 seconds
#
# Revision: 1
# Processed by: cddbd v1.5.2PL0 Copyright (c) Steve Scherf et al.
# Submitted via: audiograbber 1.83.01
#
DISCID=4a11be16
DTITLE=Jiri Slitr - Slitr zpiva Slitra [CD2) - Duety
DYEAR=2014
DGENRE=
TTITLE0=Golem
TTITLE1=Mic
TTITLE2=Tu krasu nelze popsat slovy
TTITLE3=Ach, miluji vas
TTITLE4=Mississippi
TTITLE5=Amfora, lexikon a preparat
TTITLE6=Ba ne, pane !
TTITLE7=Chybi mi ta jistota
TTITLE8=V kasne
TTITLE9=Bud mi verna, moje mila
TTITLE10=Proti vsem
TTITLE11=Balalda pod sibenici
TTITLE12=Kocici bal
TTITLE13=Vidle - Teple pradlo
TTITLE14=Kdybyste nas totiz znali
TTITLE15=Gramotingltangl k svatku sv. Jiri
TTITLE16=Predstaveni orchestru
TTITLE17=Caravan
TTITLE18=March Winds And April Showers
TTITLE19=Ti-Pi-Tin
TTITLE20=Ja Da
TTITLE21=Get It Fixed
EXTD=
EXTT0=
EXTT1=
EXTT2=
EXTT3=
EXTT4=
EXTT5=
EXTT6=
EXTT7=
EXTT8=
EXTT9=
EXTT10=
EXTT11=
EXTT12=
EXTT13=
EXTT14=
EXTT15=
EXTT16=
EXTT17=
EXTT18=
EXTT19=
EXTT20=
EXTT21=
PLAYORDER=
